<svg width="102" height="100" viewBox="0 0 102 100" fill="none" xmlns="http://www.w3.org/2000/svg">
<g id="chrome 2">
<g id="chrome">
<path id="Path" d="M50.768 0.00943446C50.768 0.00943446 80.7786 -1.31478 96.6843 28.2587C88.2817 28.2587 48.2166 28.2587 48.2166 28.2587C48.2166 28.2587 39.0632 27.9633 31.2603 38.8532C29.0096 43.4141 26.6093 48.1227 29.3102 57.3915C25.4091 50.9188 8.6024 22.2266 8.6024 22.2266C8.6024 22.2266 20.4575 1.186 50.768 0.00943446Z" fill="#E16B5A"/>
<path id="Path_2" d="M95.1223 75.0953C95.1223 75.0953 81.2837 101.238 47.2105 99.9523C51.4138 92.8187 71.4503 58.7992 71.4503 58.7992C71.4503 58.7992 76.2875 51.1734 70.5755 39.1031C67.6717 34.9109 58.8755 30.5172 49.338 28.175C57.0081 28.1 96.5888 28.1797 96.5888 28.1797C96.5888 28.1797 109.241 48.7695 95.1223 75.0953Z" fill="#FFD464"/>
<path id="Path_3" d="M6.62761 75.2937C6.62761 75.2937 -9.54207 50.4687 8.63183 22.1781C12.8319 29.3148 32.8573 63.3406 32.8573 63.3406C32.8573 63.3406 37.1711 71.2609 50.6892 72.4453C55.8421 72.0765 61.2026 71.7633 68.04 64.8375C64.2701 71.3867 47.3274 99.9992 47.3274 99.9992C47.3274 99.9992 22.8172 100.448 6.62761 75.2937Z" fill="#74B340"/>
<ellipse id="Oval" cx="50.6463" cy="50.4062" rx="23.0643" ry="22.6562" fill="white"/>
<ellipse id="Oval_2" cx="50.6383" cy="50.4062" rx="18.2924" ry="17.9688" fill="#2995CC"/>
<path id="Path_4" d="M50.6431 32.4414C50.2788 32.4414 49.9186 32.4547 49.5607 32.475C59.1586 33.0258 66.7698 40.8437 66.7698 50.4094C66.7698 59.9766 59.1586 67.7953 49.5607 68.3461C49.9194 68.3656 50.2796 68.3797 50.6431 68.3797C60.7445 68.3797 68.9355 60.3336 68.9355 50.4094C68.9355 40.4867 60.7445 32.4414 50.6431 32.4414Z" fill="#268CBF"/>
</g>
</g>
</svg>
